<svg width="196" height="174" viewBox="0 0 196 174" fill="none" xmlns="http://www.w3.org/2000/svg">
<path d="M142.285 3.25542C143.184 3.25542 143.912 2.52667 143.912 1.62771C143.912 0.72875 143.184 0 142.285 0C141.387 0 140.658 0.72875 140.658 1.62771C140.658 2.52667 141.387 3.25542 142.285 3.25542Z" fill="#F2EFED"/>
<path d="M153.621 115.824C154.52 115.824 155.248 115.095 155.248 114.196C155.248 113.297 154.52 112.568 153.621 112.568C152.723 112.568 151.994 113.297 151.994 114.196C151.994 115.095 152.723 115.824 153.621 115.824Z" fill="#DADADA"/>
<path d="M132.049 60.0611C118.119 60.0611 103.969 59.4941 90.7336 55.8181C77.4981 52.142 65.8714 45.2105 55.1587 37.1085C48.1937 31.823 41.8319 27.6349 32.8193 28.275C23.9799 28.7456 15.5262 32.0478 8.70664 37.6938C-2.86525 47.7709 -1.03715 66.4073 3.5331 79.5022C10.4433 99.2542 31.4848 112.953 49.3636 121.896C70.0212 132.211 92.708 138.21 115.468 141.666C135.577 144.702 161.042 146.897 178.318 133.857C194.204 121.896 198.555 94.5539 194.661 76.1004C193.719 70.6464 190.82 65.7238 186.508 62.2558C175.356 54.0989 158.721 59.549 146.18 59.8233C141.555 59.9331 136.802 60.0428 132.049 60.0611Z" fill="#F2EFED"/>
<path d="M187.294 33.7065V40.8758" stroke="#F2EFED" stroke-linecap="round" stroke-linejoin="round"/>
<path d="M183.729 37.29H190.877" stroke="#F2EFED" stroke-linecap="round" stroke-linejoin="round"/>
<path d="M98.0096 174C131.701 174 159.013 172.297 159.013 170.196C159.013 168.095 131.701 166.392 98.0096 166.392C64.3182 166.392 37.0059 168.095 37.0059 170.196C37.0059 172.297 64.3182 174 98.0096 174Z" fill="#F2EFED"/>
<path d="M165.666 35.5385L39.3627 24.3503C35.702 24.0261 32.4716 26.7321 32.1475 30.3944L24.284 119.242C23.9598 122.904 26.6647 126.136 30.3254 126.46L156.629 137.648C160.289 137.973 163.52 135.267 163.844 131.604L171.707 42.7569C172.031 39.0946 169.327 35.8628 165.666 35.5385Z" fill="#FAFAFA" stroke="#A9A9A9" stroke-linecap="round" stroke-linejoin="round"/>
<path d="M135.144 68.0224L63.725 61.696C62.0555 61.5481 60.5823 62.7822 60.4345 64.4523L59.9943 69.4258C59.8465 71.0959 61.08 72.5698 62.7495 72.7176L134.168 79.0441C135.838 79.192 137.311 77.9579 137.459 76.2877L137.899 71.3143C138.047 69.6441 136.813 68.1703 135.144 68.0224Z" fill="#FAFAFA" stroke="#A9A9A9" stroke-linecap="round" stroke-linejoin="round"/>
<path d="M133.238 89.499L61.8187 83.1726C60.1493 83.0247 58.6761 84.2587 58.5282 85.9289L58.0881 90.9023C57.9402 92.5725 59.1738 94.0463 60.8432 94.1942L132.262 100.521C133.931 100.669 135.405 99.4345 135.552 97.7643L135.993 92.7909C136.14 91.1207 134.907 89.6469 133.238 89.499Z" fill="#FAFAFA" stroke="#A9A9A9" stroke-linecap="round" stroke-linejoin="round"/>
<path d="M107.738 109.266L83.464 107.116C82.1868 107.002 81.0597 107.947 80.9466 109.224L80.3807 115.619C80.2676 116.896 81.2113 118.024 82.4885 118.137L106.762 120.287C108.039 120.401 109.166 119.456 109.28 118.179L109.846 111.784C109.959 110.506 109.015 109.379 107.738 109.266Z" fill="#DADADA"/>
<path d="M119.179 29.3722C119.179 33.5609 117.937 37.6556 115.611 41.1384C113.285 44.6212 109.979 47.3357 106.11 48.9386C102.242 50.5416 97.9858 50.961 93.8793 50.1438C89.7729 49.3266 86.0008 47.3096 83.0402 44.3477C80.0796 41.3858 78.0634 37.6122 77.2466 33.5039C76.4298 29.3957 76.849 25.1374 78.4513 21.2675C80.0535 17.3976 82.7669 14.09 86.2482 11.7629C89.7295 9.43574 93.8224 8.19365 98.0093 8.19365C100.793 8.1791 103.553 8.71697 106.128 9.77614C108.703 10.8353 111.042 12.3948 113.011 14.3643C114.979 16.3338 116.538 18.6743 117.597 21.2503C118.656 23.8264 119.193 26.5869 119.179 29.3722Z" fill="#FAFAFA" stroke="#A9A9A9" stroke-linecap="round" stroke-linejoin="round"/>
<path d="M114.133 43.1436C112.149 45.461 109.687 47.3214 106.916 48.5969C104.146 49.8725 101.132 50.5329 98.082 50.5329C95.0321 50.5329 92.0183 49.8725 89.2476 48.5969C86.477 47.3214 84.0152 45.461 82.0312 43.1436C82.3061 39.0721 84.1166 35.2571 87.0965 32.4705C90.0763 29.6839 94.003 28.1338 98.082 28.1338C102.161 28.1338 106.088 29.6839 109.067 32.4705C112.047 35.2571 113.858 39.0721 114.133 43.1436Z" fill="#836A58"/>
<path d="M98.0097 24.9274C101.847 24.9274 104.957 21.8159 104.957 17.9776C104.957 14.1394 101.847 11.0278 98.0097 11.0278C94.1729 11.0278 91.0625 14.1394 91.0625 17.9776C91.0625 21.8159 94.1729 24.9274 98.0097 24.9274Z" fill="#836A58"/>
<path d="M79.8574 71.8382C81.5941 71.8382 83.002 70.4299 83.002 68.6926C83.002 66.9553 81.5941 65.5469 79.8574 65.5469C78.1208 65.5469 76.7129 66.9553 76.7129 68.6926C76.7129 70.4299 78.1208 71.8382 79.8574 71.8382Z" fill="#DADADA"/>
<path d="M92.5811 72.9549C94.3177 72.9549 95.7256 71.5466 95.7256 69.8093C95.7256 68.072 94.3177 66.6636 92.5811 66.6636C90.8444 66.6636 89.4365 68.072 89.4365 69.8093C89.4365 71.5466 90.8444 72.9549 92.5811 72.9549Z" fill="#DADADA"/>
<path d="M105.305 74.0878C107.041 74.0878 108.449 72.6794 108.449 70.9421C108.449 69.2048 107.041 67.7964 105.305 67.7964C103.568 67.7964 102.16 69.2048 102.16 70.9421C102.16 72.6794 103.568 74.0878 105.305 74.0878Z" fill="#DADADA"/>
<path d="M118.027 75.2035C119.764 75.2035 121.172 73.7951 121.172 72.0578C121.172 70.3205 119.764 68.9121 118.027 68.9121C116.291 68.9121 114.883 70.3205 114.883 72.0578C114.883 73.7951 116.291 75.2035 118.027 75.2035Z" fill="#DADADA"/>
</svg>
