<svg width="189" height="175" viewBox="0 0 189 175" fill="none" xmlns="http://www.w3.org/2000/svg">
<path d="M164.635 42.6276V49.5188" stroke="#F2EFED" stroke-linecap="round" stroke-linejoin="round"/>
<path d="M161.189 46.0645H168.081" stroke="#F2EFED" stroke-linecap="round" stroke-linejoin="round"/>
<path d="M23.3525 16.0374V22.9126" stroke="#F2EFED" stroke-linecap="round" stroke-linejoin="round"/>
<path d="M19.8896 19.4747H26.7968" stroke="#F2EFED" stroke-linecap="round" stroke-linejoin="round"/>
<path d="M78.0434 1.56692C78.0434 2.15509 77.5652 2.63385 76.9729 2.63385C76.3805 2.63385 75.9023 2.15509 75.9023 1.56692C75.9023 0.978757 76.3805 0.5 76.9729 0.5C77.5652 0.5 78.0434 0.978762 78.0434 1.56692Z" fill="#F2EFED" stroke="#F2EFED"/>
<path d="M127.327 65.4273C113.913 65.4273 100.259 64.8837 87.4867 61.3341C74.9545 57.8645 63.448 51.1331 53.1915 43.3465C46.4767 38.2779 40.3709 34.2487 31.6529 34.8563C23.1167 35.3225 14.9578 38.5181 8.38342 43.97C-2.70642 53.5635 -1.03974 71.5191 3.3994 84.1345C10.0661 103.129 30.3548 116.288 47.5985 124.89C67.5185 134.82 89.4098 140.576 111.349 143.901C130.58 146.811 155.292 148.938 171.959 136.403C187.263 124.89 191.462 98.6045 187.712 80.8567C186.803 75.6089 184.005 70.8728 179.843 67.5379C169.09 59.7032 153.048 64.9316 140.965 65.2035C136.477 65.2994 131.91 65.4113 127.327 65.4273Z" fill="#F2EFED"/>
<path d="M94.5064 175C126.998 175 153.337 173.361 153.337 171.338C153.337 169.316 126.998 167.677 94.5064 167.677C62.0151 167.677 35.6758 169.316 35.6758 171.338C35.6758 173.361 62.0151 175 94.5064 175Z" fill="#F2EFED"/>
<path d="M119.495 5.31045L41.169 15.8763C38.6605 16.2147 36.9019 18.5179 37.2411 21.0206L52.4306 133.107C52.7698 135.61 55.0782 137.364 57.5867 137.026L135.913 126.46C138.422 126.122 140.18 123.819 139.841 121.316L124.652 9.22938C124.312 6.72663 122.004 4.97206 119.495 5.31045Z" fill="#F4F4F4"/>
<path d="M145.516 21.762H66.4769C63.9456 21.762 61.8936 23.8093 61.8936 26.3348V139.441C61.8936 141.967 63.9456 144.014 66.4769 144.014H145.516C148.047 144.014 150.099 141.967 150.099 139.441V26.3348C150.099 23.8093 148.047 21.762 145.516 21.762Z" fill="#FAFAFA" stroke="#DADADA" stroke-linecap="round" stroke-linejoin="round"/>
<path d="M142.745 25.4858H69.2505C67.4273 25.4858 65.9492 26.9605 65.9492 28.7796V92.3679C65.9492 94.187 67.4273 95.6617 69.2505 95.6617H142.745C144.568 95.6617 146.046 94.187 146.046 92.3679V28.7796C146.046 26.9605 144.568 25.4858 142.745 25.4858Z" fill="#FAFAFA" stroke="#836A58" stroke-linecap="round" stroke-linejoin="round"/>
<path d="M115.804 75.9476C116.327 75.9351 116.835 75.7641 117.258 75.4571C117.682 75.1502 118.002 74.7218 118.176 74.229C118.35 73.7362 118.369 73.2023 118.232 72.6982C118.094 72.1941 117.806 71.7436 117.406 71.4067C114.064 68.6443 109.849 67.15 105.509 67.1881C101.169 67.2261 96.9817 68.794 93.6881 71.6146C93.2912 71.9503 93.0061 72.3985 92.8706 72.8998C92.7352 73.401 92.7558 73.9315 92.9297 74.4208C93.1036 74.9101 93.4226 75.335 93.8443 75.6392C94.266 75.9433 94.7705 76.1122 95.2907 76.1235L115.804 75.9476Z" fill="#FAFAFA" stroke="#836A58" stroke-linecap="round" stroke-linejoin="round"/>
<path d="M128.898 59.943L119.555 54.5707L128.898 49.1824" stroke="#836A58" stroke-linecap="round" stroke-linejoin="round"/>
<path d="M82.3262 59.943L91.6692 54.5707L82.3262 49.1824" stroke="#836A58" stroke-linecap="round" stroke-linejoin="round"/>
<path d="M31.0918 94.048V100.939" stroke="#F2EFED" stroke-linecap="round" stroke-linejoin="round"/>
<path d="M27.6465 97.4854H34.5536" stroke="#F2EFED" stroke-linecap="round" stroke-linejoin="round"/>
</svg>
