<svg width="197" height="174" viewBox="0 0 197 174" fill="none" xmlns="http://www.w3.org/2000/svg">
<path d="M142.785 3.25542C143.684 3.25542 144.412 2.52667 144.412 1.62771C144.412 0.72875 143.684 0 142.785 0C141.887 0 141.158 0.72875 141.158 1.62771C141.158 2.52667 141.887 3.25542 142.785 3.25542Z" fill="#F2EFED"/>
<path d="M154.121 115.824C155.02 115.824 155.748 115.095 155.748 114.196C155.748 113.297 155.02 112.568 154.121 112.568C153.223 112.568 152.494 113.297 152.494 114.196C152.494 115.095 153.223 115.824 154.121 115.824Z" fill="#DADADA"/>
<path d="M132.549 60.0611C118.619 60.0611 104.469 59.4941 91.2336 55.8181C77.9981 52.142 66.3714 45.2105 55.6587 37.1085C48.6937 31.823 42.3319 27.6349 33.3193 28.275C24.4799 28.7456 16.0262 32.0478 9.20664 37.6938C-2.36525 47.7709 -0.537154 66.4073 4.0331 79.5022C10.9433 99.2542 31.9848 112.953 49.8636 121.896C70.5212 132.211 93.208 138.21 115.968 141.666C136.077 144.702 161.542 146.897 178.818 133.857C194.704 121.896 199.055 94.5539 195.161 76.1004C194.219 70.6464 191.32 65.7238 187.008 62.2558C175.856 54.0989 159.221 59.549 146.68 59.8233C142.055 59.9331 137.302 60.0428 132.549 60.0611Z" fill="#F2EFED"/>
<path d="M187.794 33.7065V40.8758" stroke="#F2EFED" stroke-linecap="round" stroke-linejoin="round"/>
<path d="M184.229 37.29H191.377" stroke="#F2EFED" stroke-linecap="round" stroke-linejoin="round"/>
<path d="M98.5096 174C132.201 174 159.513 172.297 159.513 170.196C159.513 168.095 132.201 166.392 98.5096 166.392C64.8182 166.392 37.5059 168.095 37.5059 170.196C37.5059 172.297 64.8182 174 98.5096 174Z" fill="#F2EFED"/>
<path d="M166.166 35.5385L39.8627 24.3503C36.202 24.0261 32.9716 26.7321 32.6475 30.3944L24.784 119.242C24.4598 122.904 27.1647 126.136 30.8254 126.46L157.129 137.648C160.789 137.973 164.02 135.267 164.344 131.604L172.207 42.7569C172.531 39.0946 169.827 35.8628 166.166 35.5385Z" fill="#FAFAFA" stroke="#A9A9A9" stroke-linecap="round" stroke-linejoin="round"/>
<path d="M135.275 80.4036C135.275 87.6034 133.141 94.6416 129.142 100.628C125.144 106.614 119.461 111.28 112.812 114.036C106.163 116.791 98.847 117.512 91.7886 116.107C84.7301 114.703 78.2465 111.235 73.1576 106.144C68.0688 101.053 64.6032 94.567 63.1992 87.5055C61.7952 80.4439 62.5158 73.1245 65.2698 66.4727C68.0239 59.8209 72.6878 54.1355 78.6717 50.1355C84.6555 46.1355 91.6907 44.0005 98.8874 44.0005C103.673 43.9755 108.416 44.9 112.842 46.7206C117.268 48.5412 121.289 51.2216 124.673 54.607C128.057 57.9923 130.736 62.0153 132.556 66.4432C134.376 70.8711 135.3 75.616 135.275 80.4036Z" fill="#FAFAFA" stroke="#A9A9A9" stroke-linecap="round" stroke-linejoin="round"/>
<path d="M126.601 104.075C123.191 108.058 118.959 111.256 114.197 113.448C109.435 115.641 104.254 116.776 99.0119 116.776C93.7695 116.776 88.5892 115.641 83.8269 113.448C79.0645 111.256 74.833 108.058 71.4229 104.075C71.8953 97.0764 75.0073 90.5189 80.1293 85.7292C85.2513 80.9394 92.0007 78.2749 99.0119 78.2749C106.023 78.2749 112.773 80.9394 117.895 85.7292C123.016 90.5189 126.129 97.0764 126.601 104.075Z" fill="#836A58"/>
<path d="M98.8877 72.7635C105.483 72.7635 110.829 67.4153 110.829 60.8178C110.829 54.2204 105.483 48.8721 98.8877 48.8721C92.2926 48.8721 86.9463 54.2204 86.9463 60.8178C86.9463 67.4153 92.2926 72.7635 98.8877 72.7635Z" fill="#836A58"/>
</svg>
