<svg width="199" height="175" viewBox="0 0 199 175" fill="none" xmlns="http://www.w3.org/2000/svg">
<path d="M128.593 63.9296C115.026 64.0107 101.248 63.3783 88.3607 59.7949C75.4734 56.2114 64.0756 49.4499 53.714 41.5533C46.9303 36.4133 40.7619 32.3272 31.9545 32.9433C23.343 33.3966 15.1061 36.6145 8.4627 42.1209C-2.74083 51.947 -1.04087 70.1075 3.42759 82.8846C10.1627 102.132 30.6593 115.492 48.0636 124.2C68.1879 134.269 90.2873 140.123 112.452 143.479C131.88 146.43 156.829 148.587 173.65 135.874C189.112 124.216 193.353 97.5589 189.565 79.5606C188.643 74.2446 185.816 69.448 181.616 66.07C170.752 58.1248 154.562 63.427 142.355 63.7026C137.902 63.7999 133.223 63.9134 128.593 63.9296Z" fill="#F2EFED"/>
<path d="M62.4404 1V7.97233" stroke="#F2EFED" stroke-width="0.85" stroke-linecap="round" stroke-linejoin="round"/>
<path d="M58.96 4.48596H65.9217" stroke="#F2EFED" stroke-width="0.85" stroke-linecap="round" stroke-linejoin="round"/>
<path d="M194.52 139.977V146.949" stroke="#F2EFED" stroke-width="0.85" stroke-linecap="round" stroke-linejoin="round"/>
<path d="M191.038 143.463H198" stroke="#F2EFED" stroke-width="0.85" stroke-linecap="round" stroke-linejoin="round"/>
<path d="M10.9252 108.277C10.9252 108.879 10.438 109.366 9.83858 109.366C9.23917 109.366 8.75195 108.879 8.75195 108.277C8.75195 107.675 9.23917 107.188 9.83858 107.188C10.438 107.188 10.9252 107.675 10.9252 108.277Z" fill="#F2EFED" stroke="#F2EFED"/>
<path d="M146.015 6.61016C146.015 7.21234 145.528 7.6992 144.928 7.6992C144.329 7.6992 143.842 7.21234 143.842 6.61016C143.842 6.00798 144.329 5.52112 144.928 5.52112C145.528 5.52112 146.015 6.00798 146.015 6.61016Z" fill="#F2EFED" stroke="#F2EFED"/>
<path d="M100.957 175C133.772 175 160.374 173.345 160.374 171.303C160.374 169.261 133.772 167.606 100.957 167.606C68.1412 167.606 41.5391 169.261 41.5391 171.303C41.5391 173.345 68.1412 175 100.957 175Z" fill="#F2EFED"/>
<path d="M55.187 19.939H141.48C143.627 19.939 145.686 20.7931 147.204 22.3136C148.722 23.834 149.575 25.8961 149.575 28.0463V130.864C149.575 133.014 148.722 135.076 147.204 136.597C145.686 138.117 143.627 138.971 141.48 138.971H44.1292C41.9823 138.971 39.9233 138.117 38.4052 136.597C36.887 135.076 36.0342 133.014 36.0342 130.864V39.3155L55.187 19.939Z" fill="#FAFAFA" stroke="#DADADA" stroke-linecap="round" stroke-linejoin="round"/>
<path d="M143.187 70.0425H66.2061C62.8923 70.0425 60.2061 72.7288 60.2061 76.0425V133.96C60.2061 137.274 62.8923 139.96 66.206 139.96H143.187C146.5 139.96 149.187 137.274 149.187 133.96V76.0425C149.187 72.7288 146.5 70.0425 143.187 70.0425Z" fill="#DADADA"/>
<path d="M36.0342 39.3155H51.7224C52.6427 39.3113 53.524 38.9421 54.1732 38.2887C54.8225 37.6354 55.187 36.7512 55.187 35.8294V19.939L36.0342 39.3155Z" fill="#FAFAFA" stroke="#DADADA" stroke-linecap="round" stroke-linejoin="round"/>
<path d="M148.749 66.3813H60.7399C57.3153 66.3813 54.5391 69.1618 54.5391 72.5916V91.4493C54.5391 94.8791 57.3153 97.6595 60.7399 97.6595H148.749C152.174 97.6595 154.95 94.8791 154.95 91.4493V72.5916C154.95 69.1618 152.174 66.3813 148.749 66.3813Z" fill="#FAFAFA" stroke="#836A58" stroke-linecap="round" stroke-linejoin="round"/>
<path d="M71.637 87.493C74.6234 87.493 77.0445 85.0683 77.0445 82.0773C77.0445 79.0863 74.6234 76.6616 71.637 76.6616C68.6505 76.6616 66.2295 79.0863 66.2295 82.0773C66.2295 85.0683 68.6505 87.493 71.637 87.493Z" fill="#836A58"/>
<path d="M88.636 87.493C91.6225 87.493 94.0435 85.0683 94.0435 82.0773C94.0435 79.0863 91.6225 76.6616 88.636 76.6616C85.6495 76.6616 83.2285 79.0863 83.2285 82.0773C83.2285 85.0683 85.6495 87.493 88.636 87.493Z" fill="#836A58"/>
<path d="M105.618 87.493C108.605 87.493 111.026 85.0683 111.026 82.0773C111.026 79.0863 108.605 76.6616 105.618 76.6616C102.632 76.6616 100.211 79.0863 100.211 82.0773C100.211 85.0683 102.632 87.493 105.618 87.493Z" fill="#836A58"/>
<path d="M148.749 101.065H60.7399C57.3153 101.065 54.5391 103.846 54.5391 107.276V126.133C54.5391 129.563 57.3153 132.344 60.7399 132.344H148.749C152.174 132.344 154.95 129.563 154.95 126.133V107.276C154.95 103.846 152.174 101.065 148.749 101.065Z" fill="#FAFAFA" stroke="#836A58" stroke-linecap="round" stroke-linejoin="round"/>
<path d="M71.637 122.161C74.6234 122.161 77.0445 119.736 77.0445 116.745C77.0445 113.754 74.6234 111.329 71.637 111.329C68.6505 111.329 66.2295 113.754 66.2295 116.745C66.2295 119.736 68.6505 122.161 71.637 122.161Z" fill="#836A58"/>
<path d="M88.636 122.161C91.6225 122.161 94.0435 119.736 94.0435 116.745C94.0435 113.754 91.6225 111.329 88.636 111.329C85.6495 111.329 83.2285 113.754 83.2285 116.745C83.2285 119.736 85.6495 122.161 88.636 122.161Z" fill="#836A58"/>
<path d="M105.618 122.161C108.605 122.161 111.026 119.736 111.026 116.745C111.026 113.754 108.605 111.329 105.618 111.329C102.632 111.329 100.211 113.754 100.211 116.745C100.211 119.736 102.632 122.161 105.618 122.161Z" fill="#836A58"/>
</svg>
