<svg width="196" height="175" viewBox="0 0 196 175" fill="none" xmlns="http://www.w3.org/2000/svg">
<path d="M132.043 59.3319C118.132 59.3319 103.973 58.758 90.7269 55.011C77.7306 51.3484 65.7979 44.2426 55.1616 36.0228C48.1981 30.6723 41.8661 26.402 32.8252 27.0434C23.9805 27.5295 15.5225 30.8838 8.69392 36.6135C-2.80666 46.8418 -1.07825 65.7963 3.5253 79.0628C10.4389 99.0975 31.479 113.056 49.3614 122.086C70.0192 132.568 92.7046 138.661 115.473 142.154C135.416 145.243 161.043 147.471 178.327 134.255C194.199 122.086 198.553 94.3378 194.664 75.6027C193.721 70.068 190.819 65.0741 186.504 61.5599C175.353 53.2725 158.717 58.8087 146.186 59.0787C141.532 59.18 136.796 59.2981 132.043 59.3319Z" fill="#F2EFED"/>
<path d="M156.308 138.441H45.7393V64.4462L101.131 25.7607L156.308 64.4462V138.441Z" fill="#A9A9A9"/>
<path d="M128.532 14.5588L48.7147 36.5979C46.1993 37.2924 44.7146 39.9264 45.3985 42.481L63.175 108.884C63.8589 111.439 66.4525 112.947 68.9679 112.252L148.785 90.2129C151.3 89.5183 152.785 86.8843 152.101 84.3297L134.325 17.9267C133.641 15.3721 131.047 13.8642 128.532 14.5588Z" fill="#FAFAFA" stroke="#836A58" stroke-linecap="round" stroke-linejoin="round"/>
<path d="M156.308 138.897H45.7393V64.9189L98.3062 98.7771L156.308 64.9189V138.897Z" fill="#FAFAFA" stroke="#836A58" stroke-linecap="round" stroke-linejoin="round"/>
<path d="M45.7393 138.897L97.8907 88.2617C98.8741 87.2905 100.192 86.7471 101.564 86.7471C102.935 86.7471 104.253 87.2905 105.236 88.2617L156.308 138.897H45.7393Z" fill="#FAFAFA" stroke="#836A58" stroke-linecap="round" stroke-linejoin="round"/>
<path d="M82.7158 63.4589C84.5073 66.9706 87.4302 69.774 90.998 71.4023C94.5657 73.0306 98.5629 73.3855 102.324 72.4079C106.085 71.4304 109.383 69.1794 111.669 66.0297C113.955 62.88 115.091 59.0217 114.887 55.0973" stroke="#836A58" stroke-linecap="round" stroke-linejoin="round"/>
<path d="M113.396 43.6524C114.699 43.6524 115.756 42.5793 115.756 41.2556C115.756 39.9319 114.699 38.8589 113.396 38.8589C112.093 38.8589 111.036 39.9319 111.036 41.2556C111.036 42.5793 112.093 43.6524 113.396 43.6524Z" fill="#836A58"/>
<path d="M77.232 53.6441C78.5354 53.6441 79.592 52.571 79.592 51.2473C79.592 49.9236 78.5354 48.8506 77.232 48.8506C75.9287 48.8506 74.8721 49.9236 74.8721 51.2473C74.8721 52.571 75.9287 53.6441 77.232 53.6441Z" fill="#836A58"/>
<path d="M155.391 38.4368C155.391 39.0815 154.879 39.5909 154.262 39.5909C153.646 39.5909 153.134 39.0815 153.134 38.4368C153.134 37.7921 153.646 37.2827 154.262 37.2827C154.879 37.2827 155.391 37.7921 155.391 38.4368Z" fill="#F2EFED" stroke="#F2EFED"/>
<path d="M38.5074 123.065C38.5074 123.709 37.9948 124.219 37.3787 124.219C36.7626 124.219 36.25 123.709 36.25 123.065C36.25 122.42 36.7626 121.911 37.3787 121.911C37.9948 121.911 38.5074 122.42 38.5074 123.065Z" fill="#F2EFED" stroke="#F2EFED"/>
<path d="M181.519 37.6265V44.9011" stroke="#F2EFED" stroke-linecap="round" stroke-linejoin="round"/>
<path d="M177.945 41.272H185.092" stroke="#F2EFED" stroke-linecap="round" stroke-linejoin="round"/>
<path d="M171.846 151.252V158.51" stroke="#F2EFED" stroke-linecap="round" stroke-linejoin="round"/>
<path d="M168.272 154.881H175.419" stroke="#F2EFED" stroke-linecap="round" stroke-linejoin="round"/>
<path d="M34.7695 1V8.25773" stroke="#F2EFED" stroke-linecap="round" stroke-linejoin="round"/>
<path d="M31.1973 4.62891H38.3436" stroke="#F2EFED" stroke-linecap="round" stroke-linejoin="round"/>
<path d="M98.6707 175C132.365 175 159.68 173.27 159.68 171.135C159.68 169.001 132.365 167.27 98.6707 167.27C64.976 167.27 37.6611 169.001 37.6611 171.135C37.6611 173.27 64.976 175 98.6707 175Z" fill="#F2EFED"/>
</svg>
