<svg width="25" height="24" viewBox="0 0 25 24" fill="none" xmlns="http://www.w3.org/2000/svg">
<path d="M16.542 12.3699H21.232C21.152 17.0399 20.232 17.8099 17.362 19.5099C17.032 19.7099 16.922 20.1299 17.122 20.4699C17.322 20.7999 17.742 20.9099 18.082 20.7099C21.462 18.7099 22.642 17.4899 22.642 11.6699V6.27994C22.642 4.56994 21.252 3.18994 19.552 3.18994H16.552C14.792 3.18994 13.462 4.51994 13.462 6.27994V9.27994C13.452 11.0399 14.782 12.3699 16.542 12.3699Z" fill="#836A58"/>
<path d="M5.72184 12.3699H10.4118C10.3318 17.0399 9.41184 17.8099 6.54184 19.5099C6.21184 19.7099 6.10184 20.1299 6.30184 20.4699C6.50184 20.7999 6.92184 20.9099 7.26184 20.7099C10.6418 18.7099 11.8218 17.4899 11.8218 11.6699V6.27994C11.8218 4.56994 10.4318 3.18994 8.73184 3.18994H5.73184C3.96184 3.18994 2.63184 4.51994 2.63184 6.27994V9.27994C2.63184 11.0399 3.96184 12.3699 5.72184 12.3699Z" fill="#836A58"/>
</svg>
